solid Exported from Blender-2.71 (sub 0)
facet normal -1.000000 0.000000 0.000000
outer loop
vertex -0.177000 0.030000 -0.030000
vertex -0.177000 -0.030000 -0.030000
vertex -0.177000 -0.030000 0.030000
endloop
endfacet
facet normal -1.000000 0.000000 0.000000
outer loop
vertex -0.177000 -0.030000 0.030000
vertex -0.177000 0.030000 0.030000
vertex -0.177000 0.030000 -0.030000
endloop
endfacet
facet normal 0.000000 1.000000 -0.000000
outer loop
vertex -0.177000 0.030000 0.030000
vertex 0.177000 0.030000 0.030000
vertex 0.177000 0.030000 -0.030000
endloop
endfacet
facet normal -0.000000 1.000000 0.000000
outer loop
vertex 0.177000 0.030000 -0.030000
vertex -0.177000 0.030000 -0.030000
vertex -0.177000 0.030000 0.030000
endloop
endfacet
facet normal 1.000000 0.000000 0.000000
outer loop
vertex 0.177000 0.030000 0.030000
vertex 0.177000 -0.030000 0.030000
vertex 0.177000 -0.030000 -0.030000
endloop
endfacet
facet normal 1.000000 0.000000 0.000000
outer loop
vertex 0.177000 -0.030000 -0.030000
vertex 0.177000 0.030000 -0.030000
vertex 0.177000 0.030000 0.030000
endloop
endfacet
facet normal -0.000000 -1.000000 -0.000000
outer loop
vertex -0.177000 -0.030000 -0.030000
vertex 0.177000 -0.030000 -0.030000
vertex 0.177000 -0.030000 0.030000
endloop
endfacet
facet normal 0.000000 -1.000000 0.000000
outer loop
vertex 0.177000 -0.030000 0.030000
vertex -0.177000 -0.030000 0.030000
vertex -0.177000 -0.030000 -0.030000
endloop
endfacet
facet normal -0.000000 -0.000000 -1.000000
outer loop
vertex -0.177000 -0.030000 -0.030000
vertex -0.177000 0.030000 -0.030000
vertex 0.177000 0.030000 -0.030000
endloop
endfacet
facet normal 0.000000 0.000000 -1.000000
outer loop
vertex 0.177000 0.030000 -0.030000
vertex 0.177000 -0.030000 -0.030000
vertex -0.177000 -0.030000 -0.030000
endloop
endfacet
facet normal -0.000000 0.000000 1.000000
outer loop
vertex 0.177000 -0.030000 0.030000
vertex 0.177000 0.030000 0.030000
vertex -0.177000 0.030000 0.030000
endloop
endfacet
facet normal 0.000000 -0.000000 1.000000
outer loop
vertex -0.177000 0.030000 0.030000
vertex -0.177000 -0.030000 0.030000
vertex 0.177000 -0.030000 0.030000
endloop
endfacet
endsolid Exported from Blender-2.71 (sub 0)
