solid Exported from Blender-2.71 (sub 0)
facet normal -0.514030 0.017857 -0.857586
outer loop
vertex -0.033348 0.005528 -0.002000
vertex -0.033464 0.002195 -0.002000
vertex -0.035000 0.006000 -0.001000
endloop
endfacet
facet normal -0.559758 0.014283 -0.828533
outer loop
vertex -0.033520 0.000000 -0.002000
vertex -0.035000 0.000000 -0.001000
vertex -0.033464 0.002195 -0.002000
endloop
endfacet
facet normal -0.124588 0.033458 -0.991644
outer loop
vertex -0.031500 0.005000 -0.002250
vertex -0.033348 0.005528 -0.002000
vertex -0.033195 0.006097 -0.002000
endloop
endfacet
facet normal -0.177319 0.438489 -0.881071
outer loop
vertex -0.025951 0.009472 -0.002000
vertex -0.027504 0.008844 -0.002000
vertex -0.027506 0.010852 -0.001000
endloop
endfacet
facet normal -0.086180 0.523265 -0.847801
outer loop
vertex -0.017000 0.014200 -0.001000
vertex -0.017035 0.012574 -0.002000
vertex -0.018627 0.012312 -0.002000
endloop
endfacet
facet normal -0.092963 0.527377 -0.844530
outer loop
vertex -0.018627 0.012312 -0.002000
vertex -0.019123 0.013826 -0.001000
vertex -0.017000 0.014200 -0.001000
endloop
endfacet
facet normal 0.189529 0.511457 -0.838147
outer loop
vertex -0.017035 0.012574 -0.002000
vertex -0.017000 0.014200 -0.001000
vertex -0.015334 0.013582 -0.001000
endloop
endfacet
facet normal 0.169757 0.534619 -0.827868
outer loop
vertex -0.015334 0.013582 -0.001000
vertex -0.015770 0.012173 -0.002000
vertex -0.017035 0.012574 -0.002000
endloop
endfacet
facet normal -0.086252 0.077570 -0.993249
outer loop
vertex -0.023676 0.007453 -0.002250
vertex -0.021742 0.000000 -0.003000
vertex -0.027500 0.000000 -0.002500
endloop
endfacet
facet normal -0.004482 0.096143 -0.995357
outer loop
vertex -0.023676 0.007453 -0.002250
vertex -0.017137 0.007758 -0.002250
vertex -0.017000 0.000000 -0.003000
endloop
endfacet
facet normal -0.002885 0.061886 -0.998079
outer loop
vertex -0.023676 0.007453 -0.002250
vertex -0.020696 0.011624 -0.002000
vertex -0.017137 0.007758 -0.002250
endloop
endfacet
facet normal 0.341406 0.575866 -0.742846
outer loop
vertex -0.010486 0.006998 -0.002000
vertex -0.010000 0.008000 -0.001000
vertex -0.009391 0.006349 -0.002000
endloop
endfacet
facet normal -0.178965 0.436947 -0.881503
outer loop
vertex -0.025951 0.009472 -0.002000
vertex -0.027506 0.010852 -0.001000
vertex -0.020696 0.011624 -0.002000
endloop
endfacet
facet normal -0.191222 0.437314 -0.878744
outer loop
vertex -0.027504 0.008844 -0.002000
vertex -0.031151 0.007249 -0.002000
vertex -0.027506 0.010852 -0.001000
endloop
endfacet
facet normal -0.167695 0.504527 -0.846954
outer loop
vertex -0.019123 0.013826 -0.001000
vertex -0.018627 0.012312 -0.002000
vertex -0.020696 0.011624 -0.002000
endloop
endfacet
facet normal 0.344295 0.466487 -0.814770
outer loop
vertex -0.015334 0.013582 -0.001000
vertex -0.013661 0.012348 -0.001000
vertex -0.014509 0.011227 -0.002000
endloop
endfacet
facet normal 0.350255 0.467296 -0.811761
outer loop
vertex -0.014509 0.011227 -0.002000
vertex -0.015770 0.012173 -0.002000
vertex -0.015334 0.013582 -0.001000
endloop
endfacet
facet normal -0.448302 0.249522 -0.858349
outer loop
vertex -0.033348 0.005528 -0.002000
vertex -0.035000 0.006000 -0.001000
vertex -0.034482 0.006930 -0.001000
endloop
endfacet
facet normal -0.546001 0.146629 -0.824853
outer loop
vertex -0.034482 0.006930 -0.001000
vertex -0.033195 0.006097 -0.002000
vertex -0.033348 0.005528 -0.002000
endloop
endfacet
facet normal 0.037670 0.096814 -0.994589
outer loop
vertex -0.017000 0.000000 -0.003000
vertex -0.017137 0.007758 -0.002250
vertex -0.011527 0.008143 -0.002000
endloop
endfacet
facet normal 0.520952 0.438603 -0.732282
outer loop
vertex -0.013661 0.012348 -0.001000
vertex -0.010000 0.008000 -0.001000
vertex -0.011527 0.008143 -0.002000
endloop
endfacet
facet normal 0.420020 0.406220 -0.811522
outer loop
vertex -0.011527 0.008143 -0.002000
vertex -0.014509 0.011227 -0.002000
vertex -0.013661 0.012348 -0.001000
endloop
endfacet
facet normal -0.038242 0.087458 -0.995434
outer loop
vertex -0.027500 0.006000 -0.002250
vertex -0.031151 0.007249 -0.002000
vertex -0.027504 0.008844 -0.002000
endloop
endfacet
facet normal -0.337451 0.423195 -0.840852
outer loop
vertex -0.033314 0.007989 -0.001000
vertex -0.032502 0.006650 -0.002000
vertex -0.033195 0.006097 -0.002000
endloop
endfacet
facet normal -0.375755 0.414457 -0.828875
outer loop
vertex -0.033195 0.006097 -0.002000
vertex -0.034482 0.006930 -0.001000
vertex -0.033314 0.007989 -0.001000
endloop
endfacet
facet normal -0.219343 0.494858 -0.840835
outer loop
vertex -0.031151 0.007249 -0.002000
vertex -0.032502 0.006650 -0.002000
vertex -0.033314 0.007989 -0.001000
endloop
endfacet
facet normal 0.041713 0.040343 -0.998315
outer loop
vertex -0.014509 0.011227 -0.002000
vertex -0.011527 0.008143 -0.002000
vertex -0.017137 0.007758 -0.002250
endloop
endfacet
facet normal -0.080714 0.101223 -0.991584
outer loop
vertex -0.032502 0.006650 -0.002000
vertex -0.031500 0.005000 -0.002250
vertex -0.033195 0.006097 -0.002000
endloop
endfacet
facet normal -0.132762 0.004612 -0.991137
outer loop
vertex -0.033464 0.002195 -0.002000
vertex -0.033348 0.005528 -0.002000
vertex -0.031500 0.005000 -0.002250
endloop
endfacet
facet normal -0.008568 0.052022 -0.998609
outer loop
vertex -0.017035 0.012574 -0.002000
vertex -0.017137 0.007758 -0.002250
vertex -0.018627 0.012312 -0.002000
endloop
endfacet
facet normal -0.034563 0.084387 -0.995833
outer loop
vertex -0.025951 0.009472 -0.002000
vertex -0.020696 0.011624 -0.002000
vertex -0.023676 0.007453 -0.002250
endloop
endfacet
facet normal 0.034396 0.045889 -0.998354
outer loop
vertex -0.015770 0.012173 -0.002000
vertex -0.014509 0.011227 -0.002000
vertex -0.017137 0.007758 -0.002250
endloop
endfacet
facet normal -0.052465 0.118366 -0.991583
outer loop
vertex -0.032502 0.006650 -0.002000
vertex -0.031151 0.007249 -0.002000
vertex -0.031500 0.005000 -0.002250
endloop
endfacet
facet normal -0.126282 0.000000 -0.991994
outer loop
vertex -0.031500 0.005000 -0.002250
vertex -0.031500 0.000000 -0.002250
vertex -0.033464 0.002195 -0.002000
endloop
endfacet
facet normal -0.033248 0.087479 -0.995611
outer loop
vertex -0.023676 0.007453 -0.002250
vertex -0.027500 0.006000 -0.002250
vertex -0.027504 0.008844 -0.002000
endloop
endfacet
facet normal 0.016349 0.051488 -0.998540
outer loop
vertex -0.017137 0.007758 -0.002250
vertex -0.017035 0.012574 -0.002000
vertex -0.015770 0.012173 -0.002000
endloop
endfacet
facet normal 0.514730 0.467574 -0.718629
outer loop
vertex -0.010000 0.008000 -0.001000
vertex -0.010486 0.006998 -0.002000
vertex -0.011527 0.008143 -0.002000
endloop
endfacet
facet normal 0.000000 0.100119 -0.994976
outer loop
vertex -0.021742 0.000000 -0.003000
vertex -0.023676 0.007453 -0.002250
vertex -0.017000 0.000000 -0.003000
endloop
endfacet
facet normal -0.015820 0.041625 -0.999008
outer loop
vertex -0.027500 0.006000 -0.002250
vertex -0.023676 0.007453 -0.002250
vertex -0.027500 0.000000 -0.002500
endloop
endfacet
facet normal -0.034262 0.084725 -0.995815
outer loop
vertex -0.025951 0.009472 -0.002000
vertex -0.023676 0.007453 -0.002250
vertex -0.027504 0.008844 -0.002000
endloop
endfacet
facet normal -0.016436 0.049450 -0.998641
outer loop
vertex -0.020696 0.011624 -0.002000
vertex -0.018627 0.012312 -0.002000
vertex -0.017137 0.007758 -0.002250
endloop
endfacet
facet normal 0.077270 0.070191 -0.994536
outer loop
vertex -0.010486 0.006998 -0.002000
vertex -0.017000 0.000000 -0.003000
vertex -0.011527 0.008143 -0.002000
endloop
endfacet
facet normal -0.181304 0.511159 -0.840146
outer loop
vertex -0.027506 0.010852 -0.001000
vertex -0.019123 0.013826 -0.001000
vertex -0.020696 0.011624 -0.002000
endloop
endfacet
facet normal -0.028708 0.114831 -0.992970
outer loop
vertex -0.031151 0.007249 -0.002000
vertex -0.027500 0.006000 -0.002250
vertex -0.031500 0.005000 -0.002250
endloop
endfacet
facet normal -0.122834 0.003134 -0.992422
outer loop
vertex -0.031500 0.000000 -0.002250
vertex -0.033520 0.000000 -0.002000
vertex -0.033464 0.002195 -0.002000
endloop
endfacet
facet normal -0.232186 0.471053 -0.850999
outer loop
vertex -0.031151 0.007249 -0.002000
vertex -0.033314 0.007989 -0.001000
vertex -0.027506 0.010852 -0.001000
endloop
endfacet
facet normal -0.545563 -0.000000 -0.838070
outer loop
vertex -0.033464 0.002195 -0.002000
vertex -0.035000 0.000000 -0.001000
vertex -0.035000 0.006000 -0.001000
endloop
endfacet
facet normal 0.297169 0.501249 -0.812675
outer loop
vertex -0.009391 0.006349 -0.002000
vertex -0.008465 0.003905 -0.003169
vertex -0.010486 0.006998 -0.002000
endloop
endfacet
facet normal -0.141301 0.267709 -0.953082
outer loop
vertex -0.008465 0.003905 -0.003169
vertex -0.017000 0.000000 -0.003000
vertex -0.010486 0.006998 -0.002000
endloop
endfacet
facet normal 0.623637 0.516829 -0.586486
outer loop
vertex -0.008465 0.003905 -0.003169
vertex -0.009391 0.006349 -0.002000
vertex -0.007000 0.003464 -0.002000
endloop
endfacet
facet normal 0.613646 0.558318 -0.558319
outer loop
vertex -0.007000 0.003464 -0.002000
vertex -0.007000 0.002000 -0.003464
vertex -0.008465 0.003905 -0.003169
endloop
endfacet
facet normal 0.664751 0.550902 -0.504591
outer loop
vertex -0.007000 0.003464 -0.002000
vertex -0.009391 0.006349 -0.002000
vertex -0.010000 0.008000 -0.001000
endloop
endfacet
facet normal 0.593833 0.804588 -0.000001
outer loop
vertex -0.013661 0.012348 -0.001000
vertex -0.015334 0.013582 -0.001000
vertex -0.015334 0.013582 0.001000
endloop
endfacet
facet normal 0.593833 0.804588 -0.000001
outer loop
vertex -0.015334 0.013582 0.001000
vertex -0.013661 0.012348 0.001000
vertex -0.013661 0.012348 -0.001000
endloop
endfacet
facet normal 0.347476 0.937689 0.000000
outer loop
vertex -0.015334 0.013582 -0.001000
vertex -0.017000 0.014200 -0.001000
vertex -0.017000 0.014200 0.001000
endloop
endfacet
facet normal 0.347476 0.937689 -0.000000
outer loop
vertex -0.017000 0.014200 0.001000
vertex -0.015334 0.013582 0.001000
vertex -0.015334 0.013582 -0.001000
endloop
endfacet
facet normal -0.334287 0.942471 0.000000
outer loop
vertex -0.019123 0.013826 -0.001000
vertex -0.027506 0.010852 -0.001000
vertex -0.027506 0.010852 0.001000
endloop
endfacet
facet normal -0.334287 0.942471 -0.000001
outer loop
vertex -0.027506 0.010852 0.001000
vertex -0.019123 0.013826 0.001000
vertex -0.019123 0.013826 -0.001000
endloop
endfacet
facet normal -0.671670 0.740851 0.000000
outer loop
vertex -0.033314 0.007989 -0.001000
vertex -0.034482 0.006930 -0.001000
vertex -0.034482 0.006930 0.001000
endloop
endfacet
facet normal -0.671670 0.740851 0.000000
outer loop
vertex -0.034482 0.006930 0.001000
vertex -0.033314 0.007989 0.001000
vertex -0.033314 0.007989 -0.001000
endloop
endfacet
facet normal 0.764979 0.644055 -0.000001
outer loop
vertex -0.010000 0.008000 -0.001000
vertex -0.013661 0.012348 -0.001000
vertex -0.013661 0.012348 0.001000
endloop
endfacet
facet normal 0.764979 0.644055 -0.000001
outer loop
vertex -0.013661 0.012348 0.001000
vertex -0.010000 0.008000 0.000000
vertex -0.010000 0.008000 -0.001000
endloop
endfacet
facet normal -0.173598 0.984817 -0.000000
outer loop
vertex -0.017000 0.014200 -0.001000
vertex -0.019123 0.013826 -0.001000
vertex -0.019123 0.013826 0.001000
endloop
endfacet
facet normal -0.173598 0.984817 0.000000
outer loop
vertex -0.019123 0.013826 0.001000
vertex -0.017000 0.014200 0.001000
vertex -0.017000 0.014200 -0.001000
endloop
endfacet
facet normal -0.442117 0.896957 0.000000
outer loop
vertex -0.027506 0.010852 -0.001000
vertex -0.033314 0.007989 -0.001000
vertex -0.033314 0.007989 0.001000
endloop
endfacet
facet normal -0.442117 0.896957 0.000000
outer loop
vertex -0.033314 0.007989 0.001000
vertex -0.027506 0.010852 0.001000
vertex -0.027506 0.010852 -0.001000
endloop
endfacet
facet normal -0.873772 0.486336 0.000000
outer loop
vertex -0.034482 0.006930 -0.001000
vertex -0.035000 0.006000 -0.001000
vertex -0.035000 0.006000 0.001000
endloop
endfacet
facet normal -0.873772 0.486336 0.000000
outer loop
vertex -0.035000 0.006000 0.001000
vertex -0.034482 0.006930 0.001000
vertex -0.034482 0.006930 -0.001000
endloop
endfacet
facet normal -1.000000 0.000000 0.000000
outer loop
vertex -0.035000 0.006000 -0.001000
vertex -0.035000 0.000000 -0.001000
vertex -0.035000 0.000000 0.001000
endloop
endfacet
facet normal -1.000000 0.000000 0.000000
outer loop
vertex -0.035000 0.000000 0.001000
vertex -0.035000 0.006000 0.001000
vertex -0.035000 0.006000 -0.001000
endloop
endfacet
facet normal 0.834076 0.551650 -0.000001
outer loop
vertex -0.007000 0.003464 -0.002000
vertex -0.010000 0.008000 -0.001000
vertex -0.010000 0.008000 0.000000
endloop
endfacet
facet normal 0.789858 0.592393 -0.158732
outer loop
vertex -0.010000 0.008000 0.000000
vertex -0.007000 0.004000 0.000000
vertex -0.007000 0.003464 -0.002000
endloop
endfacet
facet normal -0.545563 0.000000 0.838070
outer loop
vertex -0.033464 0.002195 0.002000
vertex -0.035000 0.006000 0.001000
vertex -0.035000 0.000000 0.001000
endloop
endfacet
facet normal -0.124587 0.033460 0.991644
outer loop
vertex -0.031500 0.005000 0.002250
vertex -0.033195 0.006097 0.002000
vertex -0.033348 0.005528 0.002000
endloop
endfacet
facet normal -0.086252 0.077570 0.993249
outer loop
vertex -0.023676 0.007453 0.002250
vertex -0.027500 0.000000 0.002500
vertex -0.021742 0.000000 0.003000
endloop
endfacet
facet normal -0.004482 0.096143 0.995357
outer loop
vertex -0.023676 0.007453 0.002250
vertex -0.017000 0.000000 0.003000
vertex -0.017137 0.007758 0.002250
endloop
endfacet
facet normal -0.002885 0.061886 0.998079
outer loop
vertex -0.023676 0.007453 0.002250
vertex -0.017137 0.007758 0.002250
vertex -0.020696 0.011624 0.002000
endloop
endfacet
facet normal 0.341406 0.575865 0.742847
outer loop
vertex -0.010486 0.006998 0.002000
vertex -0.009391 0.006349 0.002000
vertex -0.010000 0.008000 0.001000
endloop
endfacet
facet normal -0.232186 0.471053 0.850999
outer loop
vertex -0.031151 0.007249 0.002000
vertex -0.027506 0.010852 0.001000
vertex -0.033314 0.007989 0.001000
endloop
endfacet
facet normal 0.037670 0.096814 0.994589
outer loop
vertex -0.017000 0.000000 0.003000
vertex -0.011527 0.008143 0.002000
vertex -0.017137 0.007758 0.002250
endloop
endfacet
facet normal -0.038242 0.087458 0.995434
outer loop
vertex -0.027500 0.006000 0.002250
vertex -0.027504 0.008844 0.002000
vertex -0.031151 0.007249 0.002000
endloop
endfacet
facet normal -0.375755 0.414457 0.828875
outer loop
vertex -0.033314 0.007989 0.001000
vertex -0.034482 0.006930 0.001000
vertex -0.033195 0.006097 0.002000
endloop
endfacet
facet normal -0.337455 0.423195 0.840851
outer loop
vertex -0.033195 0.006097 0.002000
vertex -0.032502 0.006650 0.002000
vertex -0.033314 0.007989 0.001000
endloop
endfacet
facet normal -0.092963 0.527377 0.844530
outer loop
vertex -0.017000 0.014200 0.001000
vertex -0.019123 0.013826 0.001000
vertex -0.018627 0.012312 0.002000
endloop
endfacet
facet normal -0.086180 0.523265 0.847801
outer loop
vertex -0.018627 0.012312 0.002000
vertex -0.017035 0.012574 0.002000
vertex -0.017000 0.014200 0.001000
endloop
endfacet
facet normal 0.041713 0.040343 0.998315
outer loop
vertex -0.014509 0.011227 0.002000
vertex -0.017137 0.007758 0.002250
vertex -0.011527 0.008143 0.002000
endloop
endfacet
facet normal -0.080714 0.101222 0.991584
outer loop
vertex -0.032502 0.006650 0.002000
vertex -0.033195 0.006097 0.002000
vertex -0.031500 0.005000 0.002250
endloop
endfacet
facet normal -0.132761 0.004612 0.991137
outer loop
vertex -0.033464 0.002195 0.002000
vertex -0.031500 0.005000 0.002250
vertex -0.033348 0.005528 0.002000
endloop
endfacet
facet normal -0.008568 0.052022 0.998609
outer loop
vertex -0.017035 0.012574 0.002000
vertex -0.018627 0.012312 0.002000
vertex -0.017137 0.007758 0.002250
endloop
endfacet
facet normal -0.034563 0.084387 0.995833
outer loop
vertex -0.025951 0.009472 0.002000
vertex -0.023676 0.007453 0.002250
vertex -0.020696 0.011624 0.002000
endloop
endfacet
facet normal 0.034395 0.045889 0.998354
outer loop
vertex -0.015770 0.012173 0.002000
vertex -0.017137 0.007758 0.002250
vertex -0.014509 0.011227 0.002000
endloop
endfacet
facet normal -0.052465 0.118366 0.991583
outer loop
vertex -0.032502 0.006650 0.002000
vertex -0.031500 0.005000 0.002250
vertex -0.031151 0.007249 0.002000
endloop
endfacet
facet normal -0.126282 0.000000 0.991994
outer loop
vertex -0.031500 0.005000 0.002250
vertex -0.033464 0.002195 0.002000
vertex -0.031500 0.000000 0.002250
endloop
endfacet
facet normal -0.033248 0.087479 0.995611
outer loop
vertex -0.023676 0.007453 0.002250
vertex -0.027504 0.008844 0.002000
vertex -0.027500 0.006000 0.002250
endloop
endfacet
facet normal 0.016349 0.051488 0.998540
outer loop
vertex -0.017137 0.007758 0.002250
vertex -0.015770 0.012173 0.002000
vertex -0.017035 0.012574 0.002000
endloop
endfacet
facet normal 0.514730 0.467574 0.718629
outer loop
vertex -0.010000 0.008000 0.001000
vertex -0.011527 0.008143 0.002000
vertex -0.010486 0.006998 0.002000
endloop
endfacet
facet normal 0.000000 0.100119 0.994976
outer loop
vertex -0.021742 0.000000 0.003000
vertex -0.017000 0.000000 0.003000
vertex -0.023676 0.007453 0.002250
endloop
endfacet
facet normal -0.015820 0.041625 0.999008
outer loop
vertex -0.027500 0.006000 0.002250
vertex -0.027500 0.000000 0.002500
vertex -0.023676 0.007453 0.002250
endloop
endfacet
facet normal -0.034261 0.084725 0.995815
outer loop
vertex -0.025951 0.009472 0.002000
vertex -0.027504 0.008844 0.002000
vertex -0.023676 0.007453 0.002250
endloop
endfacet
facet normal -0.016436 0.049450 0.998641
outer loop
vertex -0.020696 0.011624 0.002000
vertex -0.017137 0.007758 0.002250
vertex -0.018627 0.012312 0.002000
endloop
endfacet
facet normal 0.077270 0.070191 0.994536
outer loop
vertex -0.010486 0.006998 0.002000
vertex -0.011527 0.008143 0.002000
vertex -0.017000 0.000000 0.003000
endloop
endfacet
facet normal 0.169758 0.534619 0.827868
outer loop
vertex -0.017035 0.012574 0.002000
vertex -0.015770 0.012173 0.002000
vertex -0.015334 0.013582 0.001000
endloop
endfacet
facet normal 0.189529 0.511457 0.838147
outer loop
vertex -0.015334 0.013582 0.001000
vertex -0.017000 0.014200 0.001000
vertex -0.017035 0.012574 0.002000
endloop
endfacet
facet normal -0.028708 0.114831 0.992970
outer loop
vertex -0.031151 0.007249 0.002000
vertex -0.031500 0.005000 0.002250
vertex -0.027500 0.006000 0.002250
endloop
endfacet
facet normal -0.122834 0.003134 0.992422
outer loop
vertex -0.031500 0.000000 0.002250
vertex -0.033464 0.002195 0.002000
vertex -0.033520 0.000000 0.002000
endloop
endfacet
facet normal -0.181304 0.511159 0.840146
outer loop
vertex -0.027506 0.010852 0.001000
vertex -0.020696 0.011624 0.002000
vertex -0.019123 0.013826 0.001000
endloop
endfacet
facet normal 0.297169 0.501249 0.812675
outer loop
vertex -0.009391 0.006349 0.002000
vertex -0.010486 0.006998 0.002000
vertex -0.008465 0.003905 0.003169
endloop
endfacet
facet normal -0.141301 0.267709 0.953082
outer loop
vertex -0.008465 0.003905 0.003169
vertex -0.010486 0.006998 0.002000
vertex -0.017000 0.000000 0.003000
endloop
endfacet
facet normal 0.613637 0.558323 0.558323
outer loop
vertex -0.008465 0.003905 0.003169
vertex -0.007000 0.002000 0.003464
vertex -0.007000 0.003464 0.002000
endloop
endfacet
facet normal 0.623629 0.516829 0.586494
outer loop
vertex -0.007000 0.003464 0.002000
vertex -0.009391 0.006349 0.002000
vertex -0.008465 0.003905 0.003169
endloop
endfacet
facet normal 0.664745 0.550903 0.504598
outer loop
vertex -0.007000 0.003464 0.002000
vertex -0.010000 0.008000 0.001000
vertex -0.009391 0.006349 0.002000
endloop
endfacet
facet normal 0.350256 0.467296 0.811761
outer loop
vertex -0.015334 0.013582 0.001000
vertex -0.015770 0.012173 0.002000
vertex -0.014509 0.011227 0.002000
endloop
endfacet
facet normal 0.344295 0.466487 0.814771
outer loop
vertex -0.014509 0.011227 0.002000
vertex -0.013661 0.012348 0.001000
vertex -0.015334 0.013582 0.001000
endloop
endfacet
facet normal -0.167695 0.504527 0.846954
outer loop
vertex -0.019123 0.013826 0.001000
vertex -0.020696 0.011624 0.002000
vertex -0.018627 0.012312 0.002000
endloop
endfacet
facet normal 0.420019 0.406220 0.811523
outer loop
vertex -0.013661 0.012348 0.001000
vertex -0.014509 0.011227 0.002000
vertex -0.011527 0.008143 0.002000
endloop
endfacet
facet normal 0.520952 0.438602 0.732282
outer loop
vertex -0.011527 0.008143 0.002000
vertex -0.010000 0.008000 0.001000
vertex -0.013661 0.012348 0.001000
endloop
endfacet
facet normal -0.191222 0.437314 0.878743
outer loop
vertex -0.027504 0.008844 0.002000
vertex -0.027506 0.010852 0.001000
vertex -0.031151 0.007249 0.002000
endloop
endfacet
facet normal -0.178965 0.436948 0.881503
outer loop
vertex -0.025951 0.009472 0.002000
vertex -0.020696 0.011624 0.002000
vertex -0.027506 0.010852 0.001000
endloop
endfacet
facet normal -0.545998 0.146636 0.824854
outer loop
vertex -0.033348 0.005528 0.002000
vertex -0.033195 0.006097 0.002000
vertex -0.034482 0.006930 0.001000
endloop
endfacet
facet normal -0.448304 0.249523 0.858348
outer loop
vertex -0.034482 0.006930 0.001000
vertex -0.035000 0.006000 0.001000
vertex -0.033348 0.005528 0.002000
endloop
endfacet
facet normal 0.789857 0.592394 0.158731
outer loop
vertex -0.007000 0.003464 0.002000
vertex -0.007000 0.004000 0.000000
vertex -0.010000 0.008000 0.000000
endloop
endfacet
facet normal 0.834076 0.551650 -0.000001
outer loop
vertex -0.010000 0.008000 0.000000
vertex -0.010000 0.008000 0.001000
vertex -0.007000 0.003464 0.002000
endloop
endfacet
facet normal -0.559758 0.014283 0.828533
outer loop
vertex -0.033520 0.000000 0.002000
vertex -0.033464 0.002195 0.002000
vertex -0.035000 0.000000 0.001000
endloop
endfacet
facet normal -0.514032 0.017856 0.857585
outer loop
vertex -0.033348 0.005528 0.002000
vertex -0.035000 0.006000 0.001000
vertex -0.033464 0.002195 0.002000
endloop
endfacet
facet normal -0.177319 0.438489 0.881070
outer loop
vertex -0.025951 0.009472 0.002000
vertex -0.027506 0.010852 0.001000
vertex -0.027504 0.008844 0.002000
endloop
endfacet
facet normal -0.219342 0.494859 0.840835
outer loop
vertex -0.031151 0.007249 0.002000
vertex -0.033314 0.007989 0.001000
vertex -0.032502 0.006650 0.002000
endloop
endfacet
facet normal 0.764979 0.644055 -0.000001
outer loop
vertex -0.010000 0.008000 0.001000
vertex -0.010000 0.008000 0.000000
vertex -0.013661 0.012348 0.001000
endloop
endfacet
facet normal -1.000000 -0.000000 0.000001
outer loop
vertex -0.027500 0.006000 0.002250
vertex -0.027500 0.006000 -0.002250
vertex -0.027500 0.000000 -0.002500
endloop
endfacet
facet normal -1.000000 0.000000 0.000001
outer loop
vertex -0.027500 0.000000 -0.002500
vertex -0.027500 0.000000 0.002500
vertex -0.027500 0.006000 0.002250
endloop
endfacet
facet normal 1.000000 0.000000 -0.000000
outer loop
vertex -0.031500 0.000000 0.002250
vertex -0.031500 0.000000 -0.002250
vertex -0.031500 0.005000 -0.002250
endloop
endfacet
facet normal 1.000000 -0.000000 0.000000
outer loop
vertex -0.031500 0.005000 -0.002250
vertex -0.031500 0.005000 0.002250
vertex -0.031500 0.000000 0.002250
endloop
endfacet
facet normal 0.242536 -0.970142 0.000000
outer loop
vertex -0.031500 0.005000 0.002250
vertex -0.031500 0.005000 -0.002250
vertex -0.027500 0.006000 -0.002250
endloop
endfacet
facet normal 0.242536 -0.970142 -0.000000
outer loop
vertex -0.027500 0.006000 -0.002250
vertex -0.027500 0.006000 0.002250
vertex -0.031500 0.005000 0.002250
endloop
endfacet
facet normal -0.514030 -0.017857 -0.857586
outer loop
vertex -0.033348 -0.005528 -0.002000
vertex -0.035000 -0.006000 -0.001000
vertex -0.033464 -0.002195 -0.002000
endloop
endfacet
facet normal -0.124588 -0.033458 -0.991644
outer loop
vertex -0.031500 -0.005000 -0.002250
vertex -0.033195 -0.006097 -0.002000
vertex -0.033348 -0.005528 -0.002000
endloop
endfacet
facet normal -0.177319 -0.438489 -0.881071
outer loop
vertex -0.025951 -0.009472 -0.002000
vertex -0.027506 -0.010852 -0.001000
vertex -0.027504 -0.008844 -0.002000
endloop
endfacet
facet normal -0.092963 -0.527377 -0.844530
outer loop
vertex -0.017000 -0.014200 -0.001000
vertex -0.019123 -0.013826 -0.001000
vertex -0.018627 -0.012312 -0.002000
endloop
endfacet
facet normal -0.086180 -0.523265 -0.847801
outer loop
vertex -0.018627 -0.012312 -0.002000
vertex -0.017035 -0.012574 -0.002000
vertex -0.017000 -0.014200 -0.001000
endloop
endfacet
facet normal 0.169757 -0.534619 -0.827868
outer loop
vertex -0.017035 -0.012574 -0.002000
vertex -0.015770 -0.012173 -0.002000
vertex -0.015334 -0.013582 -0.001000
endloop
endfacet
facet normal 0.189529 -0.511457 -0.838147
outer loop
vertex -0.015334 -0.013582 -0.001000
vertex -0.017000 -0.014200 -0.001000
vertex -0.017035 -0.012574 -0.002000
endloop
endfacet
facet normal -0.002885 -0.061886 -0.998079
outer loop
vertex -0.023676 -0.007453 -0.002250
vertex -0.017137 -0.007758 -0.002250
vertex -0.020696 -0.011624 -0.002000
endloop
endfacet
facet normal 0.341406 -0.575866 -0.742846
outer loop
vertex -0.010486 -0.006998 -0.002000
vertex -0.009391 -0.006349 -0.002000
vertex -0.010000 -0.008000 -0.001000
endloop
endfacet
facet normal -0.178965 -0.436947 -0.881503
outer loop
vertex -0.025951 -0.009472 -0.002000
vertex -0.020696 -0.011624 -0.002000
vertex -0.027506 -0.010852 -0.001000
endloop
endfacet
facet normal -0.191222 -0.437314 -0.878744
outer loop
vertex -0.027504 -0.008844 -0.002000
vertex -0.027506 -0.010852 -0.001000
vertex -0.031151 -0.007249 -0.002000
endloop
endfacet
facet normal -0.167695 -0.504527 -0.846954
outer loop
vertex -0.019123 -0.013826 -0.001000
vertex -0.020696 -0.011624 -0.002000
vertex -0.018627 -0.012312 -0.002000
endloop
endfacet
facet normal 0.350255 -0.467296 -0.811761
outer loop
vertex -0.015334 -0.013582 -0.001000
vertex -0.015770 -0.012173 -0.002000
vertex -0.014509 -0.011227 -0.002000
endloop
endfacet
facet normal 0.344295 -0.466487 -0.814770
outer loop
vertex -0.014509 -0.011227 -0.002000
vertex -0.013661 -0.012348 -0.001000
vertex -0.015334 -0.013582 -0.001000
endloop
endfacet
facet normal -0.546001 -0.146629 -0.824853
outer loop
vertex -0.033348 -0.005528 -0.002000
vertex -0.033195 -0.006097 -0.002000
vertex -0.034482 -0.006930 -0.001000
endloop
endfacet
facet normal -0.448302 -0.249522 -0.858349
outer loop
vertex -0.034482 -0.006930 -0.001000
vertex -0.035000 -0.006000 -0.001000
vertex -0.033348 -0.005528 -0.002000
endloop
endfacet
facet normal 0.420020 -0.406220 -0.811522
outer loop
vertex -0.013661 -0.012348 -0.001000
vertex -0.014509 -0.011227 -0.002000
vertex -0.011527 -0.008143 -0.002000
endloop
endfacet
facet normal 0.520952 -0.438603 -0.732282
outer loop
vertex -0.011527 -0.008143 -0.002000
vertex -0.010000 -0.008000 -0.001000
vertex -0.013661 -0.012348 -0.001000
endloop
endfacet
facet normal -0.038242 -0.087458 -0.995434
outer loop
vertex -0.027500 -0.006000 -0.002250
vertex -0.027504 -0.008844 -0.002000
vertex -0.031151 -0.007249 -0.002000
endloop
endfacet
facet normal -0.375755 -0.414457 -0.828875
outer loop
vertex -0.033314 -0.007989 -0.001000
vertex -0.034482 -0.006930 -0.001000
vertex -0.033195 -0.006097 -0.002000
endloop
endfacet
facet normal -0.337451 -0.423195 -0.840852
outer loop
vertex -0.033195 -0.006097 -0.002000
vertex -0.032502 -0.006650 -0.002000
vertex -0.033314 -0.007989 -0.001000
endloop
endfacet
facet normal -0.219343 -0.494858 -0.840835
outer loop
vertex -0.031151 -0.007249 -0.002000
vertex -0.033314 -0.007989 -0.001000
vertex -0.032502 -0.006650 -0.002000
endloop
endfacet
facet normal 0.041713 -0.040343 -0.998315
outer loop
vertex -0.014509 -0.011227 -0.002000
vertex -0.017137 -0.007758 -0.002250
vertex -0.011527 -0.008143 -0.002000
endloop
endfacet
facet normal -0.080714 -0.101223 -0.991584
outer loop
vertex -0.032502 -0.006650 -0.002000
vertex -0.033195 -0.006097 -0.002000
vertex -0.031500 -0.005000 -0.002250
endloop
endfacet
facet normal -0.132762 -0.004612 -0.991137
outer loop
vertex -0.033464 -0.002195 -0.002000
vertex -0.031500 -0.005000 -0.002250
vertex -0.033348 -0.005528 -0.002000
endloop
endfacet
facet normal -0.008568 -0.052022 -0.998609
outer loop
vertex -0.017035 -0.012574 -0.002000
vertex -0.018627 -0.012312 -0.002000
vertex -0.017137 -0.007758 -0.002250
endloop
endfacet
facet normal -0.034563 -0.084387 -0.995833
outer loop
vertex -0.025951 -0.009472 -0.002000
vertex -0.023676 -0.007453 -0.002250
vertex -0.020696 -0.011624 -0.002000
endloop
endfacet
facet normal 0.034396 -0.045889 -0.998354
outer loop
vertex -0.015770 -0.012173 -0.002000
vertex -0.017137 -0.007758 -0.002250
vertex -0.014509 -0.011227 -0.002000
endloop
endfacet
facet normal -0.052465 -0.118366 -0.991583
outer loop
vertex -0.032502 -0.006650 -0.002000
vertex -0.031500 -0.005000 -0.002250
vertex -0.031151 -0.007249 -0.002000
endloop
endfacet
facet normal -0.033248 -0.087480 -0.995611
outer loop
vertex -0.023676 -0.007453 -0.002250
vertex -0.027504 -0.008844 -0.002000
vertex -0.027500 -0.006000 -0.002250
endloop
endfacet
facet normal 0.016349 -0.051488 -0.998540
outer loop
vertex -0.017137 -0.007758 -0.002250
vertex -0.015770 -0.012173 -0.002000
vertex -0.017035 -0.012574 -0.002000
endloop
endfacet
facet normal 0.514730 -0.467574 -0.718629
outer loop
vertex -0.010000 -0.008000 -0.001000
vertex -0.011527 -0.008143 -0.002000
vertex -0.010486 -0.006998 -0.002000
endloop
endfacet
facet normal -0.034262 -0.084725 -0.995815
outer loop
vertex -0.025951 -0.009472 -0.002000
vertex -0.027504 -0.008844 -0.002000
vertex -0.023676 -0.007453 -0.002250
endloop
endfacet
facet normal -0.016436 -0.049450 -0.998641
outer loop
vertex -0.020696 -0.011624 -0.002000
vertex -0.017137 -0.007758 -0.002250
vertex -0.018627 -0.012312 -0.002000
endloop
endfacet
facet normal -0.181304 -0.511159 -0.840146
outer loop
vertex -0.027506 -0.010852 -0.001000
vertex -0.020696 -0.011624 -0.002000
vertex -0.019123 -0.013826 -0.001000
endloop
endfacet
facet normal -0.028708 -0.114831 -0.992970
outer loop
vertex -0.031151 -0.007249 -0.002000
vertex -0.031500 -0.005000 -0.002250
vertex -0.027500 -0.006000 -0.002250
endloop
endfacet
facet normal -0.232186 -0.471053 -0.850999
outer loop
vertex -0.031151 -0.007249 -0.002000
vertex -0.027506 -0.010852 -0.001000
vertex -0.033314 -0.007989 -0.001000
endloop
endfacet
facet normal 0.297169 -0.501249 -0.812675
outer loop
vertex -0.009391 -0.006349 -0.002000
vertex -0.010486 -0.006998 -0.002000
vertex -0.008465 -0.003905 -0.003169
endloop
endfacet
facet normal 0.613646 -0.558318 -0.558319
outer loop
vertex -0.008465 -0.003905 -0.003169
vertex -0.007000 -0.002000 -0.003464
vertex -0.007000 -0.003464 -0.002000
endloop
endfacet
facet normal 0.623636 -0.516829 -0.586486
outer loop
vertex -0.007000 -0.003464 -0.002000
vertex -0.009391 -0.006349 -0.002000
vertex -0.008465 -0.003905 -0.003169
endloop
endfacet
facet normal 0.664751 -0.550902 -0.504591
outer loop
vertex -0.007000 -0.003464 -0.002000
vertex -0.010000 -0.008000 -0.001000
vertex -0.009391 -0.006349 -0.002000
endloop
endfacet
facet normal 0.593833 -0.804588 -0.000001
outer loop
vertex -0.013661 -0.012348 -0.001000
vertex -0.013661 -0.012348 0.001000
vertex -0.015334 -0.013582 0.001000
endloop
endfacet
facet normal 0.593833 -0.804588 -0.000001
outer loop
vertex -0.015334 -0.013582 0.001000
vertex -0.015334 -0.013582 -0.001000
vertex -0.013661 -0.012348 -0.001000
endloop
endfacet
facet normal 0.347476 -0.937689 -0.000000
outer loop
vertex -0.015334 -0.013582 -0.001000
vertex -0.015334 -0.013582 0.001000
vertex -0.017000 -0.014200 0.001000
endloop
endfacet
facet normal 0.347476 -0.937689 0.000000
outer loop
vertex -0.017000 -0.014200 0.001000
vertex -0.017000 -0.014200 -0.001000
vertex -0.015334 -0.013582 -0.001000
endloop
endfacet
facet normal -0.334287 -0.942471 -0.000001
outer loop
vertex -0.019123 -0.013826 -0.001000
vertex -0.019123 -0.013826 0.001000
vertex -0.027506 -0.010852 0.001000
endloop
endfacet
facet normal -0.334287 -0.942471 0.000000
outer loop
vertex -0.027506 -0.010852 0.001000
vertex -0.027506 -0.010852 -0.001000
vertex -0.019123 -0.013826 -0.001000
endloop
endfacet
facet normal -0.671670 -0.740851 -0.000000
outer loop
vertex -0.033314 -0.007989 -0.001000
vertex -0.033314 -0.007989 0.001000
vertex -0.034482 -0.006930 0.001000
endloop
endfacet
facet normal -0.671670 -0.740851 0.000000
outer loop
vertex -0.034482 -0.006930 0.001000
vertex -0.034482 -0.006930 -0.001000
vertex -0.033314 -0.007989 -0.001000
endloop
endfacet
facet normal 0.764979 -0.644055 -0.000001
outer loop
vertex -0.010000 -0.008000 -0.001000
vertex -0.010000 -0.008000 0.000000
vertex -0.013661 -0.012348 0.001000
endloop
endfacet
facet normal 0.764979 -0.644055 -0.000001
outer loop
vertex -0.013661 -0.012348 0.001000
vertex -0.013661 -0.012348 -0.001000
vertex -0.010000 -0.008000 -0.001000
endloop
endfacet
facet normal -0.173598 -0.984817 -0.000000
outer loop
vertex -0.017000 -0.014200 -0.001000
vertex -0.017000 -0.014200 0.001000
vertex -0.019123 -0.013826 0.001000
endloop
endfacet
facet normal -0.173598 -0.984817 -0.000000
outer loop
vertex -0.019123 -0.013826 0.001000
vertex -0.019123 -0.013826 -0.001000
vertex -0.017000 -0.014200 -0.001000
endloop
endfacet
facet normal -0.442117 -0.896957 -0.000000
outer loop
vertex -0.027506 -0.010852 -0.001000
vertex -0.027506 -0.010852 0.001000
vertex -0.033314 -0.007989 0.001000
endloop
endfacet
facet normal -0.442117 -0.896957 0.000000
outer loop
vertex -0.033314 -0.007989 0.001000
vertex -0.033314 -0.007989 -0.001000
vertex -0.027506 -0.010852 -0.001000
endloop
endfacet
facet normal -0.873772 -0.486336 -0.000000
outer loop
vertex -0.034482 -0.006930 -0.001000
vertex -0.034482 -0.006930 0.001000
vertex -0.035000 -0.006000 0.001000
endloop
endfacet
facet normal -0.873772 -0.486336 0.000000
outer loop
vertex -0.035000 -0.006000 0.001000
vertex -0.035000 -0.006000 -0.001000
vertex -0.034482 -0.006930 -0.001000
endloop
endfacet
facet normal 0.789858 -0.592393 -0.158732
outer loop
vertex -0.007000 -0.003464 -0.002000
vertex -0.007000 -0.004000 0.000000
vertex -0.010000 -0.008000 0.000000
endloop
endfacet
facet normal 0.834076 -0.551650 -0.000001
outer loop
vertex -0.010000 -0.008000 0.000000
vertex -0.010000 -0.008000 -0.001000
vertex -0.007000 -0.003464 -0.002000
endloop
endfacet
facet normal -0.124587 -0.033460 0.991644
outer loop
vertex -0.031500 -0.005000 0.002250
vertex -0.033348 -0.005528 0.002000
vertex -0.033195 -0.006097 0.002000
endloop
endfacet
facet normal -0.002885 -0.061886 0.998079
outer loop
vertex -0.023676 -0.007453 0.002250
vertex -0.020696 -0.011624 0.002000
vertex -0.017137 -0.007758 0.002250
endloop
endfacet
facet normal 0.341406 -0.575865 0.742847
outer loop
vertex -0.010486 -0.006998 0.002000
vertex -0.010000 -0.008000 0.001000
vertex -0.009391 -0.006349 0.002000
endloop
endfacet
facet normal -0.232186 -0.471053 0.850999
outer loop
vertex -0.031151 -0.007249 0.002000
vertex -0.033314 -0.007989 0.001000
vertex -0.027506 -0.010852 0.001000
endloop
endfacet
facet normal -0.038242 -0.087458 0.995434
outer loop
vertex -0.027500 -0.006000 0.002250
vertex -0.031151 -0.007249 0.002000
vertex -0.027504 -0.008844 0.002000
endloop
endfacet
facet normal -0.337455 -0.423195 0.840851
outer loop
vertex -0.033314 -0.007989 0.001000
vertex -0.032502 -0.006650 0.002000
vertex -0.033195 -0.006097 0.002000
endloop
endfacet
facet normal -0.375755 -0.414457 0.828875
outer loop
vertex -0.033195 -0.006097 0.002000
vertex -0.034482 -0.006930 0.001000
vertex -0.033314 -0.007989 0.001000
endloop
endfacet
facet normal -0.086180 -0.523265 0.847801
outer loop
vertex -0.017000 -0.014200 0.001000
vertex -0.017035 -0.012574 0.002000
vertex -0.018627 -0.012312 0.002000
endloop
endfacet
facet normal -0.092963 -0.527377 0.844530
outer loop
vertex -0.018627 -0.012312 0.002000
vertex -0.019123 -0.013826 0.001000
vertex -0.017000 -0.014200 0.001000
endloop
endfacet
facet normal 0.041713 -0.040343 0.998315
outer loop
vertex -0.014509 -0.011227 0.002000
vertex -0.011527 -0.008143 0.002000
vertex -0.017137 -0.007758 0.002250
endloop
endfacet
facet normal -0.080714 -0.101222 0.991584
outer loop
vertex -0.032502 -0.006650 0.002000
vertex -0.031500 -0.005000 0.002250
vertex -0.033195 -0.006097 0.002000
endloop
endfacet
facet normal -0.132761 -0.004612 0.991137
outer loop
vertex -0.033464 -0.002195 0.002000
vertex -0.033348 -0.005528 0.002000
vertex -0.031500 -0.005000 0.002250
endloop
endfacet
facet normal -0.008568 -0.052022 0.998609
outer loop
vertex -0.017035 -0.012574 0.002000
vertex -0.017137 -0.007758 0.002250
vertex -0.018627 -0.012312 0.002000
endloop
endfacet
facet normal -0.034563 -0.084387 0.995833
outer loop
vertex -0.025951 -0.009472 0.002000
vertex -0.020696 -0.011624 0.002000
vertex -0.023676 -0.007453 0.002250
endloop
endfacet
facet normal 0.034395 -0.045889 0.998354
outer loop
vertex -0.015770 -0.012173 0.002000
vertex -0.014509 -0.011227 0.002000
vertex -0.017137 -0.007758 0.002250
endloop
endfacet
facet normal -0.052465 -0.118366 0.991583
outer loop
vertex -0.032502 -0.006650 0.002000
vertex -0.031151 -0.007249 0.002000
vertex -0.031500 -0.005000 0.002250
endloop
endfacet
facet normal -0.033248 -0.087479 0.995611
outer loop
vertex -0.023676 -0.007453 0.002250
vertex -0.027500 -0.006000 0.002250
vertex -0.027504 -0.008844 0.002000
endloop
endfacet
facet normal 0.016349 -0.051488 0.998540
outer loop
vertex -0.017137 -0.007758 0.002250
vertex -0.017035 -0.012574 0.002000
vertex -0.015770 -0.012173 0.002000
endloop
endfacet
facet normal 0.514730 -0.467574 0.718629
outer loop
vertex -0.010000 -0.008000 0.001000
vertex -0.010486 -0.006998 0.002000
vertex -0.011527 -0.008143 0.002000
endloop
endfacet
facet normal -0.034261 -0.084725 0.995815
outer loop
vertex -0.025951 -0.009472 0.002000
vertex -0.023676 -0.007453 0.002250
vertex -0.027504 -0.008844 0.002000
endloop
endfacet
facet normal -0.016436 -0.049450 0.998641
outer loop
vertex -0.020696 -0.011624 0.002000
vertex -0.018627 -0.012312 0.002000
vertex -0.017137 -0.007758 0.002250
endloop
endfacet
facet normal 0.189529 -0.511457 0.838147
outer loop
vertex -0.017035 -0.012574 0.002000
vertex -0.017000 -0.014200 0.001000
vertex -0.015334 -0.013582 0.001000
endloop
endfacet
facet normal 0.169758 -0.534619 0.827868
outer loop
vertex -0.015334 -0.013582 0.001000
vertex -0.015770 -0.012173 0.002000
vertex -0.017035 -0.012574 0.002000
endloop
endfacet
facet normal -0.028708 -0.114831 0.992970
outer loop
vertex -0.031151 -0.007249 0.002000
vertex -0.027500 -0.006000 0.002250
vertex -0.031500 -0.005000 0.002250
endloop
endfacet
facet normal -0.181304 -0.511159 0.840146
outer loop
vertex -0.027506 -0.010852 0.001000
vertex -0.019123 -0.013826 0.001000
vertex -0.020696 -0.011624 0.002000
endloop
endfacet
facet normal 0.297169 -0.501249 0.812675
outer loop
vertex -0.009391 -0.006349 0.002000
vertex -0.008465 -0.003905 0.003169
vertex -0.010486 -0.006998 0.002000
endloop
endfacet
facet normal 0.623629 -0.516829 0.586493
outer loop
vertex -0.008465 -0.003905 0.003169
vertex -0.009391 -0.006349 0.002000
vertex -0.007000 -0.003464 0.002000
endloop
endfacet
facet normal 0.613638 -0.558323 0.558323
outer loop
vertex -0.007000 -0.003464 0.002000
vertex -0.007000 -0.002000 0.003464
vertex -0.008465 -0.003905 0.003169
endloop
endfacet
facet normal 0.664746 -0.550903 0.504597
outer loop
vertex -0.007000 -0.003464 0.002000
vertex -0.009391 -0.006349 0.002000
vertex -0.010000 -0.008000 0.001000
endloop
endfacet
facet normal 0.344295 -0.466487 0.814771
outer loop
vertex -0.015334 -0.013582 0.001000
vertex -0.013661 -0.012348 0.001000
vertex -0.014509 -0.011227 0.002000
endloop
endfacet
facet normal 0.350256 -0.467296 0.811761
outer loop
vertex -0.014509 -0.011227 0.002000
vertex -0.015770 -0.012173 0.002000
vertex -0.015334 -0.013582 0.001000
endloop
endfacet
facet normal -0.167695 -0.504527 0.846954
outer loop
vertex -0.019123 -0.013826 0.001000
vertex -0.018627 -0.012312 0.002000
vertex -0.020696 -0.011624 0.002000
endloop
endfacet
facet normal 0.520952 -0.438602 0.732282
outer loop
vertex -0.013661 -0.012348 0.001000
vertex -0.010000 -0.008000 0.001000
vertex -0.011527 -0.008143 0.002000
endloop
endfacet
facet normal 0.420019 -0.406220 0.811523
outer loop
vertex -0.011527 -0.008143 0.002000
vertex -0.014509 -0.011227 0.002000
vertex -0.013661 -0.012348 0.001000
endloop
endfacet
facet normal -0.191222 -0.437314 0.878743
outer loop
vertex -0.027504 -0.008844 0.002000
vertex -0.031151 -0.007249 0.002000
vertex -0.027506 -0.010852 0.001000
endloop
endfacet
facet normal -0.178965 -0.436948 0.881503
outer loop
vertex -0.025951 -0.009472 0.002000
vertex -0.027506 -0.010852 0.001000
vertex -0.020696 -0.011624 0.002000
endloop
endfacet
facet normal -0.448304 -0.249523 0.858348
outer loop
vertex -0.033348 -0.005528 0.002000
vertex -0.035000 -0.006000 0.001000
vertex -0.034482 -0.006930 0.001000
endloop
endfacet
facet normal -0.545998 -0.146636 0.824854
outer loop
vertex -0.034482 -0.006930 0.001000
vertex -0.033195 -0.006097 0.002000
vertex -0.033348 -0.005528 0.002000
endloop
endfacet
facet normal 0.834076 -0.551650 -0.000001
outer loop
vertex -0.007000 -0.003464 0.002000
vertex -0.010000 -0.008000 0.001000
vertex -0.010000 -0.008000 0.000000
endloop
endfacet
facet normal 0.789857 -0.592393 0.158731
outer loop
vertex -0.010000 -0.008000 0.000000
vertex -0.007000 -0.004000 0.000000
vertex -0.007000 -0.003464 0.002000
endloop
endfacet
facet normal -0.514032 -0.017856 0.857585
outer loop
vertex -0.033348 -0.005528 0.002000
vertex -0.033464 -0.002195 0.002000
vertex -0.035000 -0.006000 0.001000
endloop
endfacet
facet normal -0.177319 -0.438489 0.881070
outer loop
vertex -0.025951 -0.009472 0.002000
vertex -0.027504 -0.008844 0.002000
vertex -0.027506 -0.010852 0.001000
endloop
endfacet
facet normal -0.219342 -0.494859 0.840835
outer loop
vertex -0.031151 -0.007249 0.002000
vertex -0.032502 -0.006650 0.002000
vertex -0.033314 -0.007989 0.001000
endloop
endfacet
facet normal 0.764979 -0.644055 -0.000001
outer loop
vertex -0.010000 -0.008000 0.001000
vertex -0.013661 -0.012348 0.001000
vertex -0.010000 -0.008000 0.000000
endloop
endfacet
facet normal 0.242536 0.970142 -0.000000
outer loop
vertex -0.031500 -0.005000 0.002250
vertex -0.027500 -0.006000 0.002250
vertex -0.027500 -0.006000 -0.002250
endloop
endfacet
facet normal 0.242536 0.970142 0.000000
outer loop
vertex -0.027500 -0.006000 -0.002250
vertex -0.031500 -0.005000 -0.002250
vertex -0.031500 -0.005000 0.002250
endloop
endfacet
facet normal -0.086252 -0.077570 -0.993249
outer loop
vertex -0.023676 -0.007453 -0.002250
vertex -0.027500 0.000000 -0.002500
vertex -0.021742 0.000000 -0.003000
endloop
endfacet
facet normal -0.004482 -0.096143 -0.995357
outer loop
vertex -0.023676 -0.007453 -0.002250
vertex -0.017000 0.000000 -0.003000
vertex -0.017137 -0.007758 -0.002250
endloop
endfacet
facet normal 0.037670 -0.096814 -0.994589
outer loop
vertex -0.017000 0.000000 -0.003000
vertex -0.011527 -0.008143 -0.002000
vertex -0.017137 -0.007758 -0.002250
endloop
endfacet
facet normal -0.000000 -0.100119 -0.994976
outer loop
vertex -0.021742 0.000000 -0.003000
vertex -0.017000 0.000000 -0.003000
vertex -0.023676 -0.007453 -0.002250
endloop
endfacet
facet normal -0.015820 -0.041625 -0.999008
outer loop
vertex -0.027500 -0.006000 -0.002250
vertex -0.027500 0.000000 -0.002500
vertex -0.023676 -0.007453 -0.002250
endloop
endfacet
facet normal 0.077270 -0.070191 -0.994536
outer loop
vertex -0.010486 -0.006998 -0.002000
vertex -0.011527 -0.008143 -0.002000
vertex -0.017000 0.000000 -0.003000
endloop
endfacet
facet normal -0.141301 -0.267709 -0.953082
outer loop
vertex -0.008465 -0.003905 -0.003169
vertex -0.010486 -0.006998 -0.002000
vertex -0.017000 0.000000 -0.003000
endloop
endfacet
facet normal -0.086252 -0.077570 0.993249
outer loop
vertex -0.023676 -0.007453 0.002250
vertex -0.021742 0.000000 0.003000
vertex -0.027500 0.000000 0.002500
endloop
endfacet
facet normal -0.004482 -0.096143 0.995357
outer loop
vertex -0.023676 -0.007453 0.002250
vertex -0.017137 -0.007758 0.002250
vertex -0.017000 0.000000 0.003000
endloop
endfacet
facet normal 0.037670 -0.096814 0.994589
outer loop
vertex -0.017000 0.000000 0.003000
vertex -0.017137 -0.007758 0.002250
vertex -0.011527 -0.008143 0.002000
endloop
endfacet
facet normal -0.126282 0.000000 0.991994
outer loop
vertex -0.031500 -0.005000 0.002250
vertex -0.031500 0.000000 0.002250
vertex -0.033464 -0.002195 0.002000
endloop
endfacet
facet normal 0.000000 -0.100119 0.994976
outer loop
vertex -0.021742 0.000000 0.003000
vertex -0.023676 -0.007453 0.002250
vertex -0.017000 0.000000 0.003000
endloop
endfacet
facet normal -0.015820 -0.041625 0.999008
outer loop
vertex -0.027500 -0.006000 0.002250
vertex -0.023676 -0.007453 0.002250
vertex -0.027500 0.000000 0.002500
endloop
endfacet
facet normal 0.077270 -0.070191 0.994536
outer loop
vertex -0.010486 -0.006998 0.002000
vertex -0.017000 0.000000 0.003000
vertex -0.011527 -0.008143 0.002000
endloop
endfacet
facet normal -0.141301 -0.267709 0.953082
outer loop
vertex -0.008465 -0.003905 0.003169
vertex -0.017000 0.000000 0.003000
vertex -0.010486 -0.006998 0.002000
endloop
endfacet
facet normal -1.000000 -0.000000 0.000001
outer loop
vertex -0.027500 -0.006000 0.002250
vertex -0.027500 0.000000 0.002500
vertex -0.027500 0.000000 -0.002500
endloop
endfacet
facet normal -1.000000 0.000000 0.000001
outer loop
vertex -0.027500 0.000000 -0.002500
vertex -0.027500 -0.006000 -0.002250
vertex -0.027500 -0.006000 0.002250
endloop
endfacet
facet normal -0.559758 -0.014283 -0.828533
outer loop
vertex -0.033520 0.000000 -0.002000
vertex -0.033464 -0.002195 -0.002000
vertex -0.035000 0.000000 -0.001000
endloop
endfacet
facet normal -0.126282 0.000000 -0.991994
outer loop
vertex -0.031500 -0.005000 -0.002250
vertex -0.033464 -0.002195 -0.002000
vertex -0.031500 0.000000 -0.002250
endloop
endfacet
facet normal -0.122834 -0.003134 -0.992422
outer loop
vertex -0.031500 0.000000 -0.002250
vertex -0.033464 -0.002195 -0.002000
vertex -0.033520 0.000000 -0.002000
endloop
endfacet
facet normal -0.545563 -0.000000 -0.838070
outer loop
vertex -0.033464 -0.002195 -0.002000
vertex -0.035000 -0.006000 -0.001000
vertex -0.035000 0.000000 -0.001000
endloop
endfacet
facet normal -1.000000 -0.000000 -0.000000
outer loop
vertex -0.035000 -0.006000 -0.001000
vertex -0.035000 -0.006000 0.001000
vertex -0.035000 0.000000 0.001000
endloop
endfacet
facet normal -1.000000 0.000000 0.000000
outer loop
vertex -0.035000 0.000000 0.001000
vertex -0.035000 0.000000 -0.001000
vertex -0.035000 -0.006000 -0.001000
endloop
endfacet
facet normal -0.545563 0.000000 0.838070
outer loop
vertex -0.033464 -0.002195 0.002000
vertex -0.035000 0.000000 0.001000
vertex -0.035000 -0.006000 0.001000
endloop
endfacet
facet normal -0.559758 -0.014283 0.828533
outer loop
vertex -0.033520 0.000000 0.002000
vertex -0.035000 0.000000 0.001000
vertex -0.033464 -0.002195 0.002000
endloop
endfacet
facet normal -0.122834 -0.003134 0.992422
outer loop
vertex -0.031500 0.000000 0.002250
vertex -0.033520 0.000000 0.002000
vertex -0.033464 -0.002195 0.002000
endloop
endfacet
facet normal 1.000000 0.000000 0.000000
outer loop
vertex -0.031500 -0.005000 -0.002250
vertex -0.031500 0.000000 -0.002250
vertex -0.031500 0.000000 0.002250
endloop
endfacet
facet normal 1.000000 0.000000 0.000000
outer loop
vertex -0.031500 0.000000 0.002250
vertex -0.031500 -0.005000 0.002250
vertex -0.031500 -0.005000 -0.002250
endloop
endfacet
facet normal -0.000000 0.707107 -0.707107
outer loop
vertex -0.007000 0.003464 -0.002000
vertex 0.037500 0.003464 -0.002000
vertex 0.037500 0.002000 -0.003464
endloop
endfacet
facet normal -0.000000 0.707107 -0.707107
outer loop
vertex 0.037500 0.002000 -0.003464
vertex -0.007000 0.002000 -0.003464
vertex -0.007000 0.003464 -0.002000
endloop
endfacet
facet normal -0.000000 0.965926 -0.258819
outer loop
vertex -0.007000 0.004000 0.000000
vertex 0.037500 0.004000 -0.000000
vertex 0.037500 0.003464 -0.002000
endloop
endfacet
facet normal -0.000000 0.965926 -0.258819
outer loop
vertex 0.037500 0.003464 -0.002000
vertex -0.007000 0.003464 -0.002000
vertex -0.007000 0.004000 0.000000
endloop
endfacet
facet normal -0.000000 -0.707107 -0.707107
outer loop
vertex -0.007000 -0.002000 -0.003464
vertex 0.037500 -0.002000 -0.003464
vertex 0.037500 -0.003464 -0.002000
endloop
endfacet
facet normal -0.000000 -0.707107 -0.707107
outer loop
vertex 0.037500 -0.003464 -0.002000
vertex -0.007000 -0.003464 -0.002000
vertex -0.007000 -0.002000 -0.003464
endloop
endfacet
facet normal -0.000000 -0.965926 -0.258819
outer loop
vertex -0.007000 -0.003464 -0.002000
vertex 0.037500 -0.003464 -0.002000
vertex 0.037500 -0.004000 -0.000000
endloop
endfacet
facet normal -0.000000 -0.965926 -0.258819
outer loop
vertex 0.037500 -0.004000 -0.000000
vertex -0.007000 -0.004000 0.000000
vertex -0.007000 -0.003464 -0.002000
endloop
endfacet
facet normal 0.000000 -0.965926 0.258819
outer loop
vertex -0.007000 -0.004000 0.000000
vertex 0.037500 -0.004000 -0.000000
vertex 0.037500 -0.003464 0.002000
endloop
endfacet
facet normal 0.000000 -0.965926 0.258819
outer loop
vertex 0.037500 -0.003464 0.002000
vertex -0.007000 -0.003464 0.002000
vertex -0.007000 -0.004000 0.000000
endloop
endfacet
facet normal 0.000000 -0.707107 0.707107
outer loop
vertex -0.007000 -0.003464 0.002000
vertex 0.037500 -0.003464 0.002000
vertex 0.037500 -0.002000 0.003464
endloop
endfacet
facet normal 0.000000 -0.707107 0.707107
outer loop
vertex 0.037500 -0.002000 0.003464
vertex -0.007000 -0.002000 0.003464
vertex -0.007000 -0.003464 0.002000
endloop
endfacet
facet normal 0.541407 0.812112 0.217605
outer loop
vertex 0.037500 0.004000 -0.000000
vertex 0.037500 0.003464 0.002000
vertex 0.039000 0.002598 0.001500
endloop
endfacet
facet normal 0.541407 0.812112 0.217605
outer loop
vertex 0.039000 0.002598 0.001500
vertex 0.039000 0.003000 -0.000000
vertex 0.037500 0.004000 -0.000000
endloop
endfacet
facet normal 1.000000 -0.000000 0.000000
outer loop
vertex 0.039000 0.002598 -0.001500
vertex 0.039000 0.003000 -0.000000
vertex 0.039000 0.001500 -0.002598
endloop
endfacet
facet normal 1.000000 0.000000 0.000000
outer loop
vertex 0.039000 0.003000 -0.000000
vertex 0.039000 0.002598 0.001500
vertex 0.039000 0.001500 0.002598
endloop
endfacet
facet normal 1.000000 0.000000 -0.000009
outer loop
vertex 0.039000 0.001500 0.002598
vertex 0.039000 -0.000000 0.003000
vertex 0.039000 -0.001500 0.002598
endloop
endfacet
facet normal 1.000000 0.000000 0.000000
outer loop
vertex 0.039000 -0.001500 0.002598
vertex 0.039000 -0.002598 0.001500
vertex 0.039000 -0.003000 -0.000000
endloop
endfacet
facet normal 1.000000 0.000000 0.000000
outer loop
vertex 0.039000 -0.003000 -0.000000
vertex 0.039000 -0.002598 -0.001500
vertex 0.039000 -0.001500 -0.002598
endloop
endfacet
facet normal 1.000000 -0.000000 -0.000009
outer loop
vertex 0.039000 -0.001500 -0.002598
vertex 0.039000 -0.000000 -0.003000
vertex 0.039000 0.001500 -0.002598
endloop
endfacet
facet normal 1.000000 -0.000000 -0.000000
outer loop
vertex 0.039000 0.003000 -0.000000
vertex 0.039000 0.001500 0.002598
vertex 0.039000 0.001500 -0.002598
endloop
endfacet
facet normal 1.000000 0.000000 0.000000
outer loop
vertex 0.039000 0.001500 0.002598
vertex 0.039000 -0.001500 0.002598
vertex 0.039000 -0.003000 -0.000000
endloop
endfacet
facet normal 1.000000 0.000000 0.000000
outer loop
vertex 0.039000 -0.003000 -0.000000
vertex 0.039000 -0.001500 -0.002598
vertex 0.039000 0.001500 -0.002598
endloop
endfacet
facet normal 1.000000 0.000000 -0.000000
outer loop
vertex 0.039000 0.001500 0.002598
vertex 0.039000 -0.003000 -0.000000
vertex 0.039000 0.001500 -0.002598
endloop
endfacet
facet normal 0.541408 0.594507 0.594507
outer loop
vertex 0.037500 0.003464 0.002000
vertex 0.037500 0.002000 0.003464
vertex 0.039000 0.001500 0.002598
endloop
endfacet
facet normal 0.541407 0.594507 0.594508
outer loop
vertex 0.039000 0.001500 0.002598
vertex 0.039000 0.002598 0.001500
vertex 0.037500 0.003464 0.002000
endloop
endfacet
facet normal 0.541407 0.217604 0.812112
outer loop
vertex 0.037500 0.002000 0.003464
vertex 0.037500 -0.000000 0.004000
vertex 0.039000 -0.000000 0.003000
endloop
endfacet
facet normal 0.541409 0.217605 0.812111
outer loop
vertex 0.039000 -0.000000 0.003000
vertex 0.039000 0.001500 0.002598
vertex 0.037500 0.002000 0.003464
endloop
endfacet
facet normal 0.541408 -0.217605 0.812112
outer loop
vertex 0.037500 -0.000000 0.004000
vertex 0.037500 -0.002000 0.003464
vertex 0.039000 -0.001500 0.002598
endloop
endfacet
facet normal 0.541407 -0.217606 0.812112
outer loop
vertex 0.039000 -0.001500 0.002598
vertex 0.039000 -0.000000 0.003000
vertex 0.037500 -0.000000 0.004000
endloop
endfacet
facet normal 0.541407 -0.594508 0.594507
outer loop
vertex 0.037500 -0.002000 0.003464
vertex 0.037500 -0.003464 0.002000
vertex 0.039000 -0.002598 0.001500
endloop
endfacet
facet normal 0.541408 -0.594507 0.594507
outer loop
vertex 0.039000 -0.002598 0.001500
vertex 0.039000 -0.001500 0.002598
vertex 0.037500 -0.002000 0.003464
endloop
endfacet
facet normal 0.541407 -0.812112 0.217605
outer loop
vertex 0.037500 -0.003464 0.002000
vertex 0.037500 -0.004000 -0.000000
vertex 0.039000 -0.003000 -0.000000
endloop
endfacet
facet normal 0.541407 -0.812112 0.217605
outer loop
vertex 0.039000 -0.003000 -0.000000
vertex 0.039000 -0.002598 0.001500
vertex 0.037500 -0.003464 0.002000
endloop
endfacet
facet normal 0.541407 -0.812112 -0.217605
outer loop
vertex 0.037500 -0.004000 -0.000000
vertex 0.037500 -0.003464 -0.002000
vertex 0.039000 -0.002598 -0.001500
endloop
endfacet
facet normal 0.541407 -0.812112 -0.217605
outer loop
vertex 0.039000 -0.002598 -0.001500
vertex 0.039000 -0.003000 -0.000000
vertex 0.037500 -0.004000 -0.000000
endloop
endfacet
facet normal 0.541406 -0.594507 -0.594509
outer loop
vertex 0.037500 -0.003464 -0.002000
vertex 0.037500 -0.002000 -0.003464
vertex 0.039000 -0.001500 -0.002598
endloop
endfacet
facet normal 0.541407 -0.594508 -0.594508
outer loop
vertex 0.039000 -0.001500 -0.002598
vertex 0.039000 -0.002598 -0.001500
vertex 0.037500 -0.003464 -0.002000
endloop
endfacet
facet normal 0.541407 -0.217605 -0.812112
outer loop
vertex 0.037500 -0.002000 -0.003464
vertex 0.037500 -0.000000 -0.004000
vertex 0.039000 -0.000000 -0.003000
endloop
endfacet
facet normal 0.541406 -0.217604 -0.812113
outer loop
vertex 0.039000 -0.000000 -0.003000
vertex 0.039000 -0.001500 -0.002598
vertex 0.037500 -0.002000 -0.003464
endloop
endfacet
facet normal 0.541406 0.217605 -0.812113
outer loop
vertex 0.037500 -0.000000 -0.004000
vertex 0.037500 0.002000 -0.003464
vertex 0.039000 0.001500 -0.002598
endloop
endfacet
facet normal 0.541407 0.217604 -0.812113
outer loop
vertex 0.039000 0.001500 -0.002598
vertex 0.039000 -0.000000 -0.003000
vertex 0.037500 -0.000000 -0.004000
endloop
endfacet
facet normal 0.541407 0.594507 -0.594508
outer loop
vertex 0.037500 0.002000 -0.003464
vertex 0.037500 0.003464 -0.002000
vertex 0.039000 0.002598 -0.001500
endloop
endfacet
facet normal 0.541406 0.594508 -0.594508
outer loop
vertex 0.039000 0.002598 -0.001500
vertex 0.039000 0.001500 -0.002598
vertex 0.037500 0.002000 -0.003464
endloop
endfacet
facet normal 0.541407 0.812112 -0.217605
outer loop
vertex 0.037500 0.003464 -0.002000
vertex 0.037500 0.004000 -0.000000
vertex 0.039000 0.003000 -0.000000
endloop
endfacet
facet normal 0.541407 0.812112 -0.217605
outer loop
vertex 0.039000 0.003000 -0.000000
vertex 0.039000 0.002598 -0.001500
vertex 0.037500 0.003464 -0.002000
endloop
endfacet
facet normal 0.140394 0.256255 -0.956359
outer loop
vertex -0.007000 -0.000000 -0.004000
vertex -0.008465 0.003905 -0.003169
vertex -0.007000 0.002000 -0.003464
endloop
endfacet
facet normal 0.000000 0.965926 0.258819
outer loop
vertex -0.007000 0.003464 0.002000
vertex 0.037500 0.003464 0.002000
vertex 0.037500 0.004000 -0.000000
endloop
endfacet
facet normal 0.000000 0.965926 0.258819
outer loop
vertex 0.037500 0.004000 -0.000000
vertex -0.007000 0.004000 0.000000
vertex -0.007000 0.003464 0.002000
endloop
endfacet
facet normal 0.000001 0.258818 0.965926
outer loop
vertex -0.007000 -0.000000 0.004000
vertex 0.037500 -0.000000 0.004000
vertex 0.037500 0.002000 0.003464
endloop
endfacet
facet normal 0.000001 0.258819 0.965926
outer loop
vertex 0.037500 0.002000 0.003464
vertex -0.007000 0.002000 0.003464
vertex -0.007000 -0.000000 0.004000
endloop
endfacet
facet normal 0.000000 0.707106 0.707107
outer loop
vertex -0.007000 0.002000 0.003464
vertex 0.037500 0.002000 0.003464
vertex 0.037500 0.003464 0.002000
endloop
endfacet
facet normal 0.000000 0.707106 0.707107
outer loop
vertex 0.037500 0.003464 0.002000
vertex -0.007000 0.003464 0.002000
vertex -0.007000 0.002000 0.003464
endloop
endfacet
facet normal -0.000001 -0.258819 -0.965926
outer loop
vertex -0.007000 -0.000000 -0.004000
vertex 0.037500 -0.000000 -0.004000
vertex 0.037500 -0.002000 -0.003464
endloop
endfacet
facet normal -0.000001 -0.258819 -0.965926
outer loop
vertex 0.037500 -0.002000 -0.003464
vertex -0.007000 -0.002000 -0.003464
vertex -0.007000 -0.000000 -0.004000
endloop
endfacet
facet normal 0.000001 -0.258819 0.965926
outer loop
vertex -0.007000 -0.002000 0.003464
vertex 0.037500 -0.002000 0.003464
vertex 0.037500 -0.000000 0.004000
endloop
endfacet
facet normal 0.000001 -0.258820 0.965926
outer loop
vertex 0.037500 -0.000000 0.004000
vertex -0.007000 -0.000000 0.004000
vertex -0.007000 -0.002000 0.003464
endloop
endfacet
facet normal -0.098021 0.171930 -0.980220
outer loop
vertex -0.007000 -0.000000 -0.004000
vertex -0.017000 0.000000 -0.003000
vertex -0.008465 0.003905 -0.003169
endloop
endfacet
facet normal -0.000001 0.258819 -0.965926
outer loop
vertex -0.007000 0.002000 -0.003464
vertex 0.037500 0.002000 -0.003464
vertex 0.037500 -0.000000 -0.004000
endloop
endfacet
facet normal -0.000001 0.258819 -0.965926
outer loop
vertex 0.037500 -0.000000 -0.004000
vertex -0.007000 -0.000000 -0.004000
vertex -0.007000 0.002000 -0.003464
endloop
endfacet
facet normal -0.098023 0.171936 0.980219
outer loop
vertex -0.007000 -0.000000 0.004000
vertex -0.008465 0.003905 0.003169
vertex -0.017000 0.000000 0.003000
endloop
endfacet
facet normal 0.140374 0.256256 0.956362
outer loop
vertex -0.007000 -0.000000 0.004000
vertex -0.007000 0.002000 0.003464
vertex -0.008465 0.003905 0.003169
endloop
endfacet
facet normal -0.098021 -0.171930 -0.980220
outer loop
vertex -0.007000 -0.000000 -0.004000
vertex -0.008465 -0.003905 -0.003169
vertex -0.017000 0.000000 -0.003000
endloop
endfacet
facet normal 0.140395 -0.256255 -0.956359
outer loop
vertex -0.007000 -0.000000 -0.004000
vertex -0.007000 -0.002000 -0.003464
vertex -0.008465 -0.003905 -0.003169
endloop
endfacet
facet normal -0.098023 -0.171936 0.980219
outer loop
vertex -0.007000 -0.000000 0.004000
vertex -0.017000 0.000000 0.003000
vertex -0.008465 -0.003905 0.003169
endloop
endfacet
facet normal 0.140376 -0.256257 0.956361
outer loop
vertex -0.007000 -0.000000 0.004000
vertex -0.008465 -0.003905 0.003169
vertex -0.007000 -0.002000 0.003464
endloop
endfacet
endsolid Exported from Blender-2.71 (sub 0)
